<svg xmlns="http://www.w3.org/2000/svg" width="200" height="54" viewBox="0 0 400 108">
  <defs>
    <style>
      .cls-1 {
        fill-rule: evenodd;
      }
    </style>
  </defs>
  <path id="Evgeny_копия" data-name="Evgeny копия" class="cls-1" d="M98.938,32.271q-3.072.322-6.554,0.871,2.29-5.2,3.9-8.671t2.7-5.751q1.1-2.282,1.788-3.561t1.237-2.1q3.851-.546,8.021-1.048a77.352,77.352,0,0,1,9.213-.5H122.4a36.418,36.418,0,0,1,4.629.381,15.642,15.642,0,0,0-2.475-6.243,4.689,4.689,0,0,0-3.758-2.2,35.407,35.407,0,0,0-4.492.407q-2.934.406-7.012,0.871a81.267,81.267,0,0,1-9.121.464H84.913q-1.7,0-3.529-.14a13.882,13.882,0,0,0-.5,1.769,8.23,8.23,0,0,0-.229,1.767,5.394,5.394,0,0,0,1.833,4.234,7.322,7.322,0,0,0,5.042,1.629q-0.55,2.66-1.146,4.9T85.05,23.929q-0.735,2.337-1.7,5t-2.338,6.233q-3.21.735-5.408,1.421a8.078,8.078,0,0,0-2.658,1.146,7.839,7.839,0,0,0,5.408,4.583q-4.31,11.294-7.1,18.043T66.9,70.4q3.94,6.415,8.158,8.067,3.85-.683,6.921-1.172t5.821-.781a51.217,51.217,0,0,1,5.454-.294h18.563A4.447,4.447,0,0,0,112,74.979v-1.16a10.528,10.528,0,0,0-.688-3.83,16.933,16.933,0,0,0-1.695-3.3,101.886,101.886,0,0,0-15.9,1.195q-7.563,1.195-14.988,2.885A25.9,25.9,0,0,1,79.5,66.64q0.687-2.754,1.925-6.518t2.979-8.309q1.74-4.544,3.85-9.41,3.665-.46,7.7-1.147a47.393,47.393,0,0,1,7.975-.689q2.016,0,3.484.138t2.658,0.321A9.521,9.521,0,0,0,110.4,39.7a8.745,8.745,0,0,0,.137-1.512,6.1,6.1,0,0,0-1.7-4.583,6.484,6.484,0,0,0-4.72-1.65A51.325,51.325,0,0,0,98.938,32.271Zm25.758,11q0.138,3.072.138,6.1a60.6,60.6,0,0,1-.5,8.617,45.485,45.485,0,0,1-1.146,5.638q-0.642,2.247-1.146,3.667a7.671,7.671,0,0,0-.5,2.521,4.666,4.666,0,0,0,1.375,3.162,9.653,9.653,0,0,0,3.758,2.429,70.526,70.526,0,0,0,10.588-7.792,101.868,101.868,0,0,0,8.846-9.167q2.2-2.475,4.858-5.867A80.033,80.033,0,0,0,156,45.333a54.732,54.732,0,0,0,4.079-7.975,24.147,24.147,0,0,0,1.879-8.067A4.274,4.274,0,0,0,161,28.65a12.791,12.791,0,0,0-1.558-.687q-0.871-.32-1.742-0.55a5.9,5.9,0,0,0-1.42-.229,75.969,75.969,0,0,1-4.4,12.375q-2.661,5.775-4.859,9.625-1.65,2.66-3.575,5.408t-3.85,5.179q-1.925,2.43-3.666,4.354a21.819,21.819,0,0,1-3.117,2.933c-0.183,0-.275-0.122-0.275-0.367a47.511,47.511,0,0,0,1.879-9.762q0.412-4.9.6-11.138,0.09-3.115.183-5.087t0.229-3.392q0.138-1.42.367-2.612t0.6-2.75a4.278,4.278,0,0,0-2.338-1.008,17.245,17.245,0,0,0-2.887-.275,8.137,8.137,0,0,0-3.392.6,4.918,4.918,0,0,0-2.016,1.65,5.942,5.942,0,0,0-.963,2.521,20.173,20.173,0,0,0-.229,3.117Q124.559,40.2,124.7,43.271Zm19.479,57.475a16.283,16.283,0,0,0,3.438,2.016,22.483,22.483,0,0,0,4.262,1.375,20.872,20.872,0,0,0,4.492.5,16.125,16.125,0,0,0,3.621-.459,22.638,22.638,0,0,0,4.033-1.375,26.417,26.417,0,0,0,4.034-2.246,18.972,18.972,0,0,0,3.529-3.07,63.25,63.25,0,0,0,5.912-7.654,77.466,77.466,0,0,0,4.859-8.617q2.244-4.63,4.4-10.083t4.629-12.054q1.374-3.758,3.254-8.617t5-12.008a7.021,7.021,0,0,0-2.659-1.375,18.272,18.272,0,0,0-4.4-.825A65.933,65.933,0,0,1,187.4,46.846a63.442,63.442,0,0,1-7.2,9.854q-1.742,1.925-3.666,3.8a48.938,48.938,0,0,1-3.713,3.3q-1.787,1.422-3.208,2.337a4.638,4.638,0,0,1-2.246.917,0.306,0.306,0,0,1-.275-0.138A1.873,1.873,0,0,1,167,66.142a17.614,17.614,0,0,1,1.421-6.417,51.221,51.221,0,0,1,3.667-7.333,63.425,63.425,0,0,1,5.179-7.379A64.22,64.22,0,0,1,183.18,38.6a35.38,35.38,0,0,1,5.866-4.537,10.209,10.209,0,0,1,5.088-1.742,5.325,5.325,0,0,1,2.566.55,8.068,8.068,0,0,0-2.337-4.538A7.419,7.419,0,0,0,189.55,27a17.569,17.569,0,0,0-6.737,1.421,34.334,34.334,0,0,0-6.783,3.8,41.443,41.443,0,0,0-6.325,5.592,42.355,42.355,0,0,0-5.18,6.829A39.7,39.7,0,0,0,161,52.025a21.929,21.929,0,0,0-1.329,7.333,15.435,15.435,0,0,0,.55,4.171,12.734,12.734,0,0,0,1.558,3.529,10.69,10.69,0,0,0,2.338,2.612A6.372,6.372,0,0,0,167,71a19.766,19.766,0,0,0,2.888-1.467q1.695-1.008,3.437-2.2t3.346-2.521q1.6-1.328,2.7-2.429a104.916,104.916,0,0,1-5.5,15.583,55.089,55.089,0,0,1-6.92,11.642,29.838,29.838,0,0,1-8.113,7.287,17.709,17.709,0,0,1-9.075,2.521,14.483,14.483,0,0,1-1.742-.092,4.1,4.1,0,0,1-1.42-.458,14.05,14.05,0,0,1-1.467-.917,20.007,20.007,0,0,1-1.879-1.558,11.119,11.119,0,0,0-.825.917,1.58,1.58,0,0,0-.367,1.008A7.348,7.348,0,0,0,144.175,100.746Zm82.592-72.921a14.821,14.821,0,0,0-6.1,1.375,26.2,26.2,0,0,0-5.958,3.758A36.279,36.279,0,0,0,209.3,38.55a43.332,43.332,0,0,0-4.4,6.829,37.56,37.56,0,0,0-2.933,7.517,29.223,29.223,0,0,0-1.054,7.654,13.5,13.5,0,0,0,3.529,9.4,15.1,15.1,0,0,0,9.854,4.629,25.681,25.681,0,0,0,9.3-4.629,44.1,44.1,0,0,0,9.029-9.121,18.959,18.959,0,0,0-1.558-1.558q-1.467,1.56-3.346,3.438a36.633,36.633,0,0,1-4.033,3.483,25.423,25.423,0,0,1-4.538,2.7,11.484,11.484,0,0,1-4.858,1.1,3.181,3.181,0,0,1-2.108-.687,4.567,4.567,0,0,1-1.284-1.787,9.72,9.72,0,0,1-.641-2.383,17.383,17.383,0,0,1-.184-2.475q0-.64.046-1.237c0.03-.4.046-0.779,0.046-1.146a81.555,81.555,0,0,0,10.267-4.767,34.194,34.194,0,0,0,7.471-5.546,21.3,21.3,0,0,0,4.72-7.15,31.488,31.488,0,0,0,2.017-9.763q-3.667-4.675-7.883-5.225h0ZM223.1,47.763a40.893,40.893,0,0,1-12.192,9.029,37.053,37.053,0,0,1,3.025-7.883,35.021,35.021,0,0,1,4.263-6.417,21.436,21.436,0,0,1,5-4.4,13.591,13.591,0,0,1,5.133-2.017A18.778,18.778,0,0,1,223.1,47.763Zm27-16.271a95.785,95.785,0,0,0-6.371,12.65q-1.558,3.575-2.841,7.15t-2.154,6.829q-0.873,3.255-1.375,5.912a24.437,24.437,0,0,0-.505,4.4,19.407,19.407,0,0,0,1.375,4.079,6.744,6.744,0,0,0,2.842,3.071,10.355,10.355,0,0,0,2.613-2.612q1.512-1.972,3.529-4.812,3.575-4.95,7.012-8.983a111.3,111.3,0,0,1,7.746-8.158,23.578,23.578,0,0,1,4.95-3.942,18.52,18.52,0,0,1,2.475-1.283q-1.56,3.667-2.567,6.279t-1.558,4.492a22.207,22.207,0,0,0-.733,3.254,18.524,18.524,0,0,0,.183,6.279,7.579,7.579,0,0,0,1.329,3.071,6.749,6.749,0,0,0,2.659,2.063,10.488,10.488,0,0,0,4.354.779,5.831,5.831,0,0,0,1.879-.367,18.3,18.3,0,0,0,2.154-.917,23.521,23.521,0,0,0,2.108-1.192,14.28,14.28,0,0,0,1.742-1.283,3.015,3.015,0,0,0-.229-1.054,1.37,1.37,0,0,0-.6-0.779,4.9,4.9,0,0,0-1.742.458,5.457,5.457,0,0,1-2.108.458,2.2,2.2,0,0,1-1.7-.642q-0.6-.64-0.6-2.933a22.934,22.934,0,0,1,1.009-6.325A50.777,50.777,0,0,1,277.5,50.6q1.512-3.345,3.116-6.233a36.094,36.094,0,0,1,2.888-4.538,7.565,7.565,0,0,1,1.971-1.788,1.1,1.1,0,0,0,.687-0.5,14.014,14.014,0,0,0-2.521-3.346,5.418,5.418,0,0,0-3.987-1.6A9.989,9.989,0,0,0,274.8,34.1a37.316,37.316,0,0,0-5.27,3.667,64.385,64.385,0,0,0-5,4.583q-2.385,2.43-4.125,4.263-0.825.825-2.292,2.521T254.954,52.9q-1.7,2.063-3.484,4.125t-3.254,3.621a17.151,17.151,0,0,1,1.971-5.362q1.695-3.253,3.8-6.875t4.217-7.1a44.249,44.249,0,0,0,3.116-5.958,16.961,16.961,0,0,0-3.116-5.546,9.734,9.734,0,0,0-4.492-3.254Q252.981,26.909,250.1,31.492Zm77.137,13.475q2.475-5.775,5.317-11.825a4.653,4.653,0,0,0-1.421-1.054,14.384,14.384,0,0,0-2.246-.917,24.245,24.245,0,0,0-2.658-.687,13.144,13.144,0,0,0-2.567-.275q-2.2,3.667-4.125,7.15t-3.712,6.783q-1.788,3.3-3.621,6.554t-4.034,6.554a41.035,41.035,0,0,1-6.233,7.563q-2.75,2.43-4.4,2.7a3.024,3.024,0,0,1-.412-0.55,2.091,2.091,0,0,1-.23-1.1,15.262,15.262,0,0,1,.459-3.208q0.458-2.015,1.054-4.125T299.64,54.5q0.641-1.925,1.1-2.933a99.7,99.7,0,0,1,7.517-15.033,44.642,44.642,0,0,1,4.4-6.142,6.576,6.576,0,0,0-1.925-1.329,18.909,18.909,0,0,0-2.292-.871,13.608,13.608,0,0,0-2.291-.5,15.271,15.271,0,0,0-1.834-.137,25.24,25.24,0,0,0-5.454,5.821,63.908,63.908,0,0,0-4.766,7.975,79.531,79.531,0,0,0-3.759,8.663,71.325,71.325,0,0,0-2.429,7.883,30.028,30.028,0,0,0-.642,3.529,39.1,39.1,0,0,0-.183,4.263,6.707,6.707,0,0,0,1.467,2.952,11.478,11.478,0,0,0,2.521,2.214,12.432,12.432,0,0,0,3.025,1.431,10.214,10.214,0,0,0,3.07.507,12.664,12.664,0,0,0,4.355-2.834,46.685,46.685,0,0,0,4.354-4.708q2.107-2.6,3.85-5.257t2.933-4.48a108.94,108.94,0,0,1-6.233,17.921,66.959,66.959,0,0,1-8.113,13.658A36.733,36.733,0,0,1,288.87,95.8a19.306,19.306,0,0,1-10.221,3.071,15.686,15.686,0,0,1-1.788-.092,4.142,4.142,0,0,1-1.466-.458,11.151,11.151,0,0,1-1.421-.917q-0.733-.55-1.834-1.558a2.326,2.326,0,0,0-1.283,1.925,7.173,7.173,0,0,0,2.154,2.429,17.446,17.446,0,0,0,3.484,2.016,22.678,22.678,0,0,0,4.216,1.375,20.656,20.656,0,0,0,4.538.5,19.318,19.318,0,0,0,8.983-2.338,33.83,33.83,0,0,0,8.708-6.737,66.47,66.47,0,0,0,6.05-7.379,71.774,71.774,0,0,0,5.134-8.525,101.9,101.9,0,0,0,4.491-10.129q2.109-5.5,4.217-12.192Q324.757,50.742,327.232,44.967Z"/>
</svg>
